<svg width="24" height="24" viewBox="0 0 24 24" version="1.1" xmlns="http://www.w3.org/2000/svg" xmlns:xlink="http://www.w3.org/1999/xlink">
<title>ic_mode_edit_black_24px</title>
<desc>Created using Figma</desc>
<g id="Canvas" transform="translate(-76 -209)">
<g id="ic_mode_edit_black_24px">
<g id="Vector">
<use xlink:href="#path0_fill" transform="translate(76 209)" fill="#EB5757"/>
</g>
<g id="iconmonstr-trash-can-15">
<g id="Vector">
<use xlink:href="#path1_fill" transform="translate(83 215)" fill="#FFFFFF"/>
</g>
</g>
</g>
</g>
<defs>
<path id="path0_fill" d="M 0 12C 0 5.37258 5.37258 0 12 0C 18.6274 0 24 5.37258 24 12C 24 18.6274 18.6274 24 12 24C 5.37258 24 0 18.6274 0 12Z"/>
<path id="path1_fill" d="M 0.5 3L 2 12L 8 12L 9.5 3L 0.5 3ZM 10 1L 10 2L 0 2L 0 1L 2.8555 1C 3.3055 1 3.671 0.4505 3.671 0L 6.329 0C 6.329 0.4505 6.694 1 7.1445 1L 10 1Z"/>
</defs>
</svg>
