<svg width="18" height="18" viewBox="0 0 18 18" version="1.1" xmlns="http://www.w3.org/2000/svg" xmlns:xlink="http://www.w3.org/1999/xlink">
<title>Vector</title>
<desc>Created using Figma</desc>
<g id="Canvas" transform="translate(545 423)">
<g id="Vector">
<use xlink:href="#path0_fill" transform="translate(-545 -423)" fill="#EB5757"/>
</g>
</g>
<defs>
<path id="path0_fill" d="M 11.08 12.59L 13.67 10L 4 10L 4 8L 13.67 8L 11.08 5.41L 12.5 4L 17.5 9L 12.5 14L 11.08 12.59ZM 16 0C 16.5304 4.44089e-16 17.0391 0.210714 17.4142 0.585786C 17.7893 0.960859 18 1.46957 18 2L 18 6.67L 16 4.67L 16 2L 2 2L 2 16L 16 16L 16 13.33L 18 11.33L 18 16C 18 16.5304 17.7893 17.0391 17.4142 17.4142C 17.0391 17.7893 16.5304 18 16 18L 2 18C 0.89 18 0 17.1 0 16L 0 2C 0 0.89 0.89 0 2 0L 16 0Z"/>
</defs>
</svg>
