<svg width="32" height="32" viewBox="0 0 32 32" version="1.1" xmlns="http://www.w3.org/2000/svg" xmlns:xlink="http://www.w3.org/1999/xlink">
<title>Vector</title>
<desc>Created using Figma</desc>
<g id="Canvas" transform="translate(420 -1536)">
<g id="Vector">
<use xlink:href="#path0_fill" transform="translate(-420 1536)" fill="#219653"/>
</g>
</g>
<defs>
<path id="path0_fill" d="M 31.1108 15.9465C 30.1602 14.9705 29.9482 13.4877 30.5869 12.2805C 31.0428 11.4201 31.0748 10.3971 30.6722 9.50846C 30.2709 8.6212 29.4816 7.97323 28.5377 7.75814C 27.2164 7.45566 26.2418 6.32373 26.1338 4.96058C 26.0551 3.98863 25.5325 3.10809 24.7179 2.58112C 23.906 2.05279 22.8953 1.93853 21.9847 2.27326C 20.7101 2.73975 19.2836 2.31628 18.4623 1.23006C 17.8757 0.455728 16.9637 -3.44552e-09 15.9958 -3.44552e-09C 15.0292 -3.44552e-09 14.1172 0.455728 13.5306 1.23006C 12.7133 2.31763 11.2867 2.74109 10.0121 2.27461C 9.10287 1.94121 8.09227 2.05548 7.27899 2.58246C 6.4657 3.10944 5.94174 3.98998 5.86441 4.96193C 5.75508 6.32508 4.78181 7.45835 3.46056 7.75948C 2.51662 7.97457 1.72733 8.62254 1.32602 9.5098C 0.924716 10.3971 0.956714 11.4214 1.41269 12.2805C 2.05131 13.4863 1.83933 14.9705 0.890052 15.9465C 0.211427 16.6415 -0.105886 17.6161 0.0314387 18.5813C 0.168763 19.5466 0.746061 20.3922 1.59134 20.8667C 2.77527 21.5322 3.3939 22.8967 3.11658 24.2343C 2.92059 25.1887 3.17524 26.1809 3.80854 26.9175C 4.44316 27.6556 5.38177 28.0522 6.34438 27.9903C 7.69896 27.9056 8.94822 28.7163 9.43352 29.992C 9.77883 30.9035 10.5268 31.5985 11.4561 31.8728C 12.3827 32.147 13.3853 31.9695 14.1639 31.3928C 15.2558 30.5822 16.7451 30.5822 17.8357 31.3928C 18.6143 31.9709 19.6169 32.1483 20.5435 31.8728C 21.4728 31.5985 22.2207 30.9021 22.5674 29.992C 23.0513 28.7163 24.3019 27.9043 25.6552 27.9903C 26.6204 28.0522 27.5577 27.6556 28.191 26.9175C 28.8243 26.1809 29.0803 25.1887 28.883 24.2343C 28.607 22.8967 29.2243 21.5322 30.4095 20.8667C 31.2535 20.3908 31.8295 19.5466 31.9681 18.5813C 32.1068 17.6161 31.7881 16.6415 31.1108 15.9465ZM 14.3332 23.2462L 8.33359 17.3795L 10.8094 14.8831L 14.3332 18.252L 21.8567 10.4764L 24.3326 12.9728L 14.3332 23.2462Z"/>
</defs>
</svg>
