<svg width="10" height="16" viewBox="0 0 10 16" version="1.1" xmlns="http://www.w3.org/2000/svg" xmlns:xlink="http://www.w3.org/1999/xlink">
<title>Vector 6</title>
<desc>Created using Figma</desc>
<g id="Canvas" transform="translate(637 -986)">
<g id="Vector 6">
<use xlink:href="#path0_stroke" transform="translate(-636 987)" fill="#A9A9A9"/>
</g>
</g>
<defs>
<path id="path0_stroke" d="M -0.658505 13.2474C -1.07414 13.6111 -1.11626 14.2429 -0.752577 14.6585C -0.388895 15.0741 0.242868 15.1163 0.658505 14.7526L -0.658505 13.2474ZM 8 7L 8.6585 7.75258C 8.87552 7.56269 9 7.28836 9 7C 9 6.71164 8.87552 6.43731 8.6585 6.24742L 8 7ZM 0.658505 -0.752577C 0.242868 -1.11626 -0.388895 -1.07414 -0.752577 -0.658505C -1.11626 -0.242868 -1.07414 0.388895 -0.658505 0.752577L 0.658505 -0.752577ZM 0.658505 14.7526L 8.6585 7.75258L 7.3415 6.24742L -0.658505 13.2474L 0.658505 14.7526ZM 8.6585 6.24742L 0.658505 -0.752577L -0.658505 0.752577L 7.3415 7.75258L 8.6585 6.24742Z"/>
</defs>
</svg>
