<svg width="24" height="14" viewBox="0 0 24 14" version="1.1" xmlns="http://www.w3.org/2000/svg" xmlns:xlink="http://www.w3.org/1999/xlink">
<title>iconmonstr-eye-3</title>
<desc>Created using Figma</desc>
<g id="Canvas" transform="translate(449 -799)">
<g id="iconmonstr-eye-3">
<g id="Vector">
<use xlink:href="#path0_fill" transform="translate(-449 799)" fill="#666666"/>
</g>
</g>
</g>
<defs>
<path id="path0_fill" d="M 15 7C 15 8.657 13.657 10 12 10C 10.343 10 9 8.657 9 7C 9 6.801 9.02 6.607 9.057 6.419C 10.531 6.96 11.984 5.537 11.462 4.048C 11.636 4.018 11.816 4 12 4C 13.657 4 15 5.344 15 7ZM 12.015 0C 4.446 0 0 6.551 0 6.551C 0 6.551 4.835 14 12.015 14C 19.748 14 24 6.551 24 6.551C 24 6.551 19.709 0 12.015 0ZM 12 12C 9.239 12 7 9.762 7 7C 7 4.239 9.239 2 12 2C 14.762 2 17 4.239 17 7C 17 9.762 14.762 12 12 12Z"/>
</defs>
</svg>
