<svg width="24" height="24" viewBox="0 0 24 24" version="1.1" xmlns="http://www.w3.org/2000/svg" xmlns:xlink="http://www.w3.org/1999/xlink">
<title>iconmonstr-globe-5</title>
<desc>Created using Figma</desc>
<g id="Canvas" transform="translate(347 -794)">
<g id="iconmonstr-globe-5">
<g id="Vector">
<use xlink:href="#path0_fill" transform="translate(-347 794)" fill="#666666"/>
</g>
</g>
</g>
<defs>
<path id="path0_fill" d="M 13.144 8.171C 13.109 8.105 13.486 8.069 13.553 8.069C 13.627 8.078 13.357 8.521 13.144 8.171ZM 10.992 5.099L 11.1 5.068C 11.164 5.123 11.028 5.163 11.049 5.204C 11.135 5.359 11.07 5.452 11.057 5.536C 11.043 5.621 10.953 5.584 10.908 5.629C 10.855 5.695 11.166 5.704 11.17 5.714C 11.181 5.747 10.795 5.803 10.866 5.885C 10.962 6.021 11.69 5.69 11.574 5.709C 11.799 5.596 11.603 5.584 11.477 5.519C 11.434 5.304 11.398 4.972 11.264 4.839L 11.352 4.737C 11.146 4.438 10.992 5.099 10.992 5.099ZM 24 12C 24 18.627 18.627 24 12 24C 5.372 24 0 18.627 0 12C 0 5.373 5.372 0 12 0C 18.627 0 24 5.373 24 12ZM 15.69 6.629C 15.684 6.483 15.5 6.345 15.308 6.598C 15.173 6.772 15.197 7.037 15.124 7.155C 15.02 7.33 15.691 7.494 15.691 7.329C 15.716 7.052 16.423 7.266 16.561 7.304C 16.809 7.373 17.204 7.078 16.772 6.923C 16.417 6.793 16.23 6.654 16.198 6.4C 16.198 6.4 16.386 6.224 16.304 6.234C 16.086 6.261 15.69 7.02 15.69 6.629ZM 21.986 12C 21.986 10.965 21.809 9.92 21.629 9.368C 21.571 9.194 21.44 9.056 21.27 8.99C 21.014 8.89 19.933 9.587 19.77 9.244C 19.663 9.015 19.446 9.39 19.198 9.252C 19.078 9.186 18.744 8.737 18.593 8.792C 18.284 8.903 19.067 9.756 19.281 9.868C 19.482 9.716 20.133 9.403 20.273 9.83C 20.541 10.634 19.536 11.515 19.022 11.979C 18.254 12.673 18.398 11.53 17.875 11.127C 17.6 10.916 17.603 10.467 17.325 10.312C 17.201 10.242 16.632 9.587 16.637 9.499L 16.62 9.665C 16.526 9.736 16.326 9.397 16.305 9.344C 16.305 9.639 16.785 10.109 16.944 10.345C 17.215 10.75 17.36 11.34 17.692 11.671C 17.87 11.849 18.55 12.585 18.727 12.569C 18.92 12.552 19.53 12.111 19.638 12.136C 20.282 12.288 18.122 15.341 17.917 15.719C 17.748 16.036 18.055 16.82 18.03 17.195C 18.001 17.628 17.66 17.768 17.337 18.004C 16.991 18.257 17.072 18.749 16.781 18.929C 16.264 19.247 15.892 20.282 15.158 20.277C 14.942 20.276 14.018 20.637 13.897 20.284C 13.803 20.028 13.677 19.834 13.544 19.581C 13.414 19.333 13.529 19.076 13.371 18.857C 13.262 18.705 12.896 18.36 12.863 18.18C 12.861 18.025 12.98 17.554 13.143 17.472C 13.372 17.355 13.187 17.014 13.159 16.816C 13.111 16.462 12.892 16.17 12.629 15.965C 12.24 15.666 12.441 15.428 12.532 15.001C 12.532 14.797 12.408 14.529 12.134 14.609C 11.57 14.773 11.741 14.169 11.33 14.196C 11.034 14.217 10.792 14.405 10.517 14.488C 10.171 14.592 9.817 14.406 9.475 14.363C 8.068 14.185 7.609 12.577 7.976 11.417C 8.013 11.227 7.862 10.875 7.928 10.728C 8.086 10.376 8.408 9.981 8.69 9.714C 8.848 9.564 9.051 9.602 9.237 9.485C 9.524 9.304 9.528 8.932 9.809 8.704C 10.209 8.379 10.755 8.386 11.277 8.316C 11.555 8.279 12.613 8.05 12.78 8.256C 12.78 8.294 12.971 8.86 12.761 8.828C 13.194 8.851 13.811 9.577 14.222 9.407C 14.433 9.319 14.356 8.671 14.789 8.984C 15.051 9.172 16.225 9.256 16.469 9.053C 16.619 8.929 16.703 8.123 16.521 8.032C 16.637 8.147 15.91 8.156 15.842 8.13C 15.722 8.086 15.61 8.244 15.417 8.155C 15.533 8.21 14.771 7.801 15.199 7.488C 15.02 7.619 14.853 7.451 14.66 7.595C 14.527 7.703 14.722 7.775 14.532 7.869C 14.23 8.022 14.002 7.344 13.888 7.267C 13.772 7.191 12.874 6.561 13.118 6.972L 13.907 7.757C 13.868 7.782 13.7 7.471 13.7 7.698C 13.753 7.563 13.72 8.277 13.596 8.045C 13.541 7.956 13.686 7.906 13.602 7.777C 13.602 7.692 13.374 7.609 13.33 7.551C 13.205 7.396 12.873 7.054 12.693 6.972C 12.643 6.949 11.929 7.059 11.869 7.082C 11.799 7.18 11.739 7.283 11.69 7.393C 11.542 7.448 11.403 7.519 11.271 7.607L 11.114 7.96C 11.046 8.021 10.349 8.251 10.345 8.26C 10.374 8.185 9.858 8.089 9.892 7.939C 9.93 7.774 10.105 7.259 10.06 7.071C 10.012 6.874 11.134 7.355 11.206 6.836C 11.235 6.611 11.252 6.349 10.893 6.311C 10.961 6.319 11.588 6.065 11.692 5.951C 11.838 5.783 12.173 5.509 12.416 5.509C 12.7 5.509 12.639 5.096 12.77 4.894C 12.901 4.947 12.7 5.27 12.857 5.401C 12.847 5.298 13.302 5.458 13.346 5.434C 13.45 5.38 14.03 5.412 13.94 5.14C 13.84 4.863 13.991 4.945 14.121 4.887C 14.099 4.896 14.461 4.268 14.523 4.474C 14.48 4.262 14.102 4.548 13.97 4.537C 13.665 4.513 13.794 4.017 13.909 3.872C 13.998 3.757 13.666 3.616 13.662 3.836C 13.656 4.165 13.35 4.463 13.421 4.9C 13.529 5.559 12.686 4.741 12.612 4.786C 12.332 4.956 12.103 4.572 12.248 4.342C 12.396 4.107 12.753 4.118 12.9 3.866C 13.004 3.688 13.125 3.481 13.285 3.346C 13.82 2.897 13.968 3.256 14.501 3.305C 15.022 3.353 14.677 3.429 14.605 3.629C 14.536 3.819 14.891 3.887 15.014 3.728C 15.084 3.636 15.243 3.405 15.312 3.234C 15.401 3.012 16.213 3.037 15.646 2.698C 15.272 2.475 13.642 2.026 12.55 2.026C 12.314 2.026 12.149 2.289 11.969 2.438C 11.613 2.733 10.701 3.312 10.194 3.136C 9.675 2.957 8.564 3.796 8.386 3.802C 8.321 3.806 8.39 3.168 8.744 3.121C 8.591 3.144 9.991 2.414 9.953 2.262C 9.907 2.082 7.154 3.084 7.277 3.285C 7.336 3.377 7.576 3.377 7.261 3.579C 7.081 3.688 6.889 4.38 6.72 4.38C 6.215 4.601 6.183 3.945 5.621 4.789L 4.727 5.149C 3.399 6.56 2.48 8.347 2.147 10.332C 2.134 10.411 2.481 10.558 2.526 10.612C 2.638 10.746 2.638 11.324 2.693 11.513C 2.831 11.991 3.172 12.257 3.433 12.692C 3.587 12.951 3.843 13.606 3.762 13.878C 3.87 13.7 4.832 14.693 5.008 14.9C 5.422 15.387 5.741 15.977 5.069 16.459C 4.852 16.615 5.399 17.588 5.117 17.827L 4.756 17.92C 4.4 18.139 4.561 18.676 4.777 18.902C 6.595 20.803 9.157 21.989 11.997 21.989C 17.514 21.989 21.986 17.517 21.986 12ZM 10.479 5.643C 10.604 5.588 10.772 5.59 10.79 5.423C 10.805 5.275 10.834 5.377 10.87 5.323C 10.905 5.27 10.803 5.185 10.76 5.177C 10.696 5.163 10.652 5.246 10.611 5.281L 10.539 5.3L 10.471 5.387L 10.479 5.435L 10.392 5.541C 10.307 5.625 10.394 5.68 10.479 5.643Z"/>
</defs>
</svg>
